<?xml version="1.0" standalone="yes"?>

<svg version="1.1" viewBox="0.0 0.0 493.8897637795276 181.748031496063" fill="none" stroke="none" stroke-linecap="square" stroke-miterlimit="10" xmlns="http://www.w3.org/2000/svg" xmlns:xlink="http://www.w3.org/1999/xlink"><clipPath id="p.0"><path d="m0 0l493.88977 0l0 181.74803l-493.88977 0l0 -181.74803z" clip-rule="nonzero"></path></clipPath><g clip-path="url(#p.0)"><path fill="#000000" fill-opacity="0.0" d="m0 0l493.88977 0l0 181.74803l-493.88977 0z" fill-rule="nonzero"></path><path fill="#cfe2f3" d="m27.136482 51.81207l0 0c0 -10.908955 19.59195 -19.752407 43.759842 -19.752407c24.167892 0 43.759842 8.843452 43.759842 19.752407l0 79.00961c0 10.908966 -19.59195 19.75241 -43.759842 19.75241c-24.167892 0 -43.759842 -8.843445 -43.759842 -19.75241z" fill-rule="nonzero"></path><path fill="#000000" fill-opacity="0.0" d="m114.656166 51.81207l0 0c0 10.908951 -19.59195 19.752407 -43.759842 19.752407c-24.167892 0 -43.759842 -8.843456 -43.759842 -19.752407" fill-rule="nonzero"></path><path fill="#000000" fill-opacity="0.0" d="m27.136482 51.81207l0 0c0 -10.908955 19.59195 -19.752407 43.759842 -19.752407c24.167892 0 43.759842 8.843452 43.759842 19.752407l0 79.00961c0 10.908966 -19.59195 19.75241 -43.759842 19.75241c-24.167892 0 -43.759842 -8.843445 -43.759842 -19.75241z" fill-rule="nonzero"></path><path stroke="#000000" stroke-width="1.0" stroke-linejoin="round" stroke-linecap="butt" d="m114.656166 51.81207l0 0c0 10.908951 -19.59195 19.752407 -43.759842 19.752407c-24.167892 0 -43.759842 -8.843456 -43.759842 -19.752407" fill-rule="nonzero"></path><path stroke="#000000" stroke-width="1.0" stroke-linejoin="round" stroke-linecap="butt" d="m27.136482 51.81207l0 0c0 -10.908955 19.59195 -19.752407 43.759842 -19.752407c24.167892 0 43.759842 8.843452 43.759842 19.752407l0 79.00961c0 10.908966 -19.59195 19.75241 -43.759842 19.75241c-24.167892 0 -43.759842 -8.843445 -43.759842 -19.75241z" fill-rule="nonzero"></path><path fill="#000000" d="m55.41262 97.05933l1.265625 -0.125q0.109375 0.640625 0.453125 0.9375q0.359375 0.296875 0.953125 0.296875q0.625 0 0.9375 -0.265625q0.328125 -0.265625 0.328125 -0.625q0 -0.21875 -0.140625 -0.375q-0.125 -0.171875 -0.46875 -0.296875q-0.21875 -0.078125 -1.03125 -0.28125q-1.046875 -0.25 -1.46875 -0.625q-0.59375 -0.53125 -0.59375 -1.296875q0 -0.5 0.265625 -0.921875q0.28125 -0.4375 0.8125 -0.65625q0.53125 -0.21875 1.265625 -0.21875q1.21875 0 1.828125 0.53125q0.609375 0.53125 0.640625 1.421875l-1.296875 0.046875q-0.078125 -0.5 -0.359375 -0.703125q-0.265625 -0.21875 -0.828125 -0.21875q-0.5625 0 -0.875 0.21875q-0.21875 0.15625 -0.21875 0.40625q0 0.234375 0.203125 0.390625q0.234375 0.203125 1.1875 0.4375q0.953125 0.21875 1.40625 0.46875q0.453125 0.234375 0.703125 0.65625q0.265625 0.40625 0.265625 1.015625q0 0.546875 -0.3125 1.03125q-0.296875 0.484375 -0.859375 0.71875q-0.5625 0.234375 -1.40625 0.234375q-1.21875 0 -1.875 -0.5625q-0.65625 -0.5625 -0.78125 -1.640625zm8.6749115 -2.578125l0 0.984375l-0.84375 0l0 1.890625q0 0.5625 0.015625 0.65625q0.03125 0.09375 0.109375 0.15625q0.09375 0.0625 0.21875 0.0625q0.171875 0 0.5 -0.109375l0.109375 0.953125q-0.4375 0.1875 -0.984375 0.1875q-0.328125 0 -0.59375 -0.109375q-0.265625 -0.125 -0.390625 -0.296875q-0.125 -0.171875 -0.171875 -0.484375q-0.046875 -0.21875 -0.046875 -0.859375l0 -2.046875l-0.5625 0l0 -0.984375l0.5625 0l0 -0.921875l1.234375 -0.71875l0 1.640625l0.84375 0zm0.6844635 2.265625q0 -0.609375 0.296875 -1.1875q0.3125 -0.578125 0.859375 -0.875q0.5625 -0.296875 1.25 -0.296875q1.0625 0 1.734375 0.6875q0.671875 0.6875 0.671875 1.734375q0 1.0625 -0.6875 1.765625q-0.671875 0.6875 -1.71875 0.6875q-0.640625 0 -1.21875 -0.28125q-0.578125 -0.296875 -0.890625 -0.859375q-0.296875 -0.5625 -0.296875 -1.375zm1.265625 0.078125q0 0.6875 0.328125 1.0625q0.328125 0.359375 0.8125 0.359375q0.484375 0 0.8125 -0.359375q0.328125 -0.375 0.328125 -1.078125q0 -0.6875 -0.328125 -1.046875q-0.328125 -0.375 -0.8125 -0.375q-0.484375 0 -0.8125 0.375q-0.328125 0.359375 -0.328125 1.0625zm5.901123 2.328125l-1.234375 0l0 -4.671875l1.140625 0l0 0.671875q0.296875 -0.46875 0.53125 -0.609375q0.234375 -0.15625 0.53125 -0.15625q0.421875 0 0.8125 0.21875l-0.375 1.078125q-0.3125 -0.203125 -0.578125 -0.203125q-0.265625 0 -0.453125 0.15625q-0.171875 0.140625 -0.28125 0.515625q-0.09375 0.375 -0.09375 1.5625l0 1.4375zm5.145767 -1.484375l1.234375 0.203125q-0.234375 0.671875 -0.75 1.03125q-0.515625 0.359375 -1.28125 0.359375q-1.21875 0 -1.796875 -0.796875q-0.46875 -0.640625 -0.46875 -1.609375q0 -1.15625 0.609375 -1.8125q0.609375 -0.65625 1.53125 -0.65625q1.046875 0 1.640625 0.6875q0.609375 0.6875 0.578125 2.09375l-3.09375 0q0.015625 0.5625 0.296875 0.875q0.296875 0.296875 0.71875 0.296875q0.296875 0 0.484375 -0.15625q0.203125 -0.171875 0.296875 -0.515625zm0.078125 -1.25q-0.015625 -0.53125 -0.28125 -0.8125q-0.265625 -0.28125 -0.640625 -0.28125q-0.40625 0 -0.671875 0.296875q-0.265625 0.296875 -0.25 0.796875l1.84375 0zm7.9045258 2.734375l-1.234375 0l0 -4.65625q-0.6875 0.640625 -1.59375 0.9375l0 -1.125q0.484375 -0.15625 1.046875 -0.59375q0.5625 -0.4375 0.78125 -1.03125l1.0 0l0 6.46875z" fill-rule="nonzero"></path><path fill="#000000" d="m49.10662 110.15308l-0.796875 0l0 -5.046875q-0.28125 0.28125 -0.75 0.5625q-0.46875 0.265625 -0.828125 0.390625l0 -0.765625q0.65625 -0.296875 1.15625 -0.734375q0.5 -0.453125 0.703125 -0.875l0.515625 0l0 6.46875zm2.2034912 -3.171875q0 -1.140625 0.234375 -1.84375q0.234375 -0.703125 0.6875 -1.078125q0.46875 -0.375 1.171875 -0.375q0.53125 0 0.921875 0.21875q0.390625 0.203125 0.640625 0.59375q0.25 0.390625 0.390625 0.953125q0.15625 0.5625 0.15625 1.53125q0 1.125 -0.234375 1.828125q-0.234375 0.6875 -0.703125 1.078125q-0.453125 0.375 -1.171875 0.375q-0.921875 0 -1.453125 -0.671875q-0.640625 -0.796875 -0.640625 -2.609375zm0.8125 0q0 1.578125 0.359375 2.109375q0.375 0.515625 0.921875 0.515625q0.546875 0 0.921875 -0.515625q0.375 -0.53125 0.375 -2.109375q0 -1.59375 -0.375 -2.109375q-0.375 -0.53125 -0.921875 -0.53125q-0.546875 0 -0.875 0.453125q-0.40625 0.59375 -0.40625 2.1875zm4.375366 0q0 -1.140625 0.234375 -1.84375q0.234375 -0.703125 0.6875 -1.078125q0.46875 -0.375 1.171875 -0.375q0.53125 0 0.921875 0.21875q0.390625 0.203125 0.640625 0.59375q0.25 0.390625 0.390625 0.953125q0.15625 0.5625 0.15625 1.53125q0 1.125 -0.234375 1.828125q-0.234375 0.6875 -0.703125 1.078125q-0.453125 0.375 -1.171875 0.375q-0.921875 0 -1.453125 -0.671875q-0.640625 -0.796875 -0.640625 -2.609375zm0.8125 0q0 1.578125 0.359375 2.109375q0.375 0.515625 0.921875 0.515625q0.546875 0 0.921875 -0.515625q0.375 -0.53125 0.375 -2.109375q0 -1.59375 -0.375 -2.109375q-0.375 -0.53125 -0.921875 -0.53125q-0.546875 0 -0.875 0.453125q-0.40625 0.59375 -0.40625 2.1875zm7.1701508 3.171875l0 -4.671875l0.71875 0l0 0.71875q0.265625 -0.5 0.5 -0.65625q0.234375 -0.15625 0.515625 -0.15625q0.390625 0 0.8125 0.25l-0.28125 0.734375q-0.28125 -0.171875 -0.578125 -0.171875q-0.25 0 -0.46875 0.15625q-0.203125 0.15625 -0.296875 0.4375q-0.125 0.421875 -0.125 0.921875l0 2.4375l-0.796875 0zm6.3094635 -1.5l0.828125 0.09375q-0.203125 0.71875 -0.734375 1.125q-0.515625 0.390625 -1.328125 0.390625q-1.015625 0 -1.625 -0.625q-0.59375 -0.640625 -0.59375 -1.78125q0 -1.171875 0.609375 -1.8125q0.609375 -0.65625 1.578125 -0.65625q0.9375 0 1.515625 0.640625q0.59375 0.625 0.59375 1.78125q0 0.078125 0 0.21875l-3.484375 0q0.046875 0.765625 0.4375 1.171875q0.390625 0.40625 0.984375 0.40625q0.4375 0 0.734375 -0.21875q0.3125 -0.234375 0.484375 -0.734375zm-2.59375 -1.28125l2.609375 0q-0.046875 -0.59375 -0.296875 -0.890625q-0.375 -0.453125 -0.984375 -0.453125q-0.546875 0 -0.921875 0.375q-0.359375 0.359375 -0.40625 0.96875zm4.594116 4.5625l0 -6.453125l0.71875 0l0 0.609375q0.25 -0.359375 0.5625 -0.53125q0.328125 -0.171875 0.796875 -0.171875q0.59375 0 1.046875 0.3125q0.453125 0.296875 0.6875 0.859375q0.234375 0.5625 0.234375 1.21875q0 0.71875 -0.265625 1.296875q-0.25 0.578125 -0.734375 0.890625q-0.484375 0.296875 -1.03125 0.296875q-0.390625 0 -0.703125 -0.171875q-0.3125 -0.171875 -0.515625 -0.421875l0 2.265625l-0.796875 0zm0.71875 -4.09375q0 0.90625 0.359375 1.34375q0.375 0.421875 0.890625 0.421875q0.515625 0 0.890625 -0.4375q0.390625 -0.453125 0.390625 -1.390625q0 -0.890625 -0.375 -1.328125q-0.359375 -0.453125 -0.875 -0.453125q-0.5 0 -0.890625 0.484375q-0.390625 0.46875 -0.390625 1.359375zm4.453491 2.3125l0 -6.4375l0.78125 0l0 6.4375l-0.78125 0zm2.0880432 -5.53125l0 -0.90625l0.796875 0l0 0.90625l-0.796875 0zm0 5.53125l0 -4.671875l0.796875 0l0 4.671875l-0.796875 0zm5.119293 -1.703125l0.78125 0.09375q-0.125 0.8125 -0.65625 1.265625q-0.53125 0.453125 -1.296875 0.453125q-0.953125 0 -1.53125 -0.625q-0.578125 -0.625 -0.578125 -1.796875q0 -0.765625 0.25 -1.328125q0.25 -0.5625 0.75 -0.84375q0.515625 -0.28125 1.125 -0.28125q0.75 0 1.234375 0.390625q0.484375 0.375 0.625 1.078125l-0.765625 0.125q-0.109375 -0.46875 -0.390625 -0.703125q-0.28125 -0.25 -0.671875 -0.25q-0.609375 0 -0.984375 0.4375q-0.359375 0.421875 -0.359375 1.34375q0 0.953125 0.359375 1.375q0.359375 0.421875 0.9375 0.421875q0.46875 0 0.78125 -0.28125q0.3125 -0.28125 0.390625 -0.875zm4.6640625 1.125q-0.4375 0.375 -0.84375 0.53125q-0.40625 0.15625 -0.875 0.15625q-0.765625 0 -1.1875 -0.375q-0.40625 -0.375 -0.40625 -0.96875q0 -0.34375 0.15625 -0.625q0.15625 -0.28125 0.40625 -0.453125q0.25 -0.171875 0.5625 -0.265625q0.234375 -0.046875 0.703125 -0.109375q0.96875 -0.109375 1.421875 -0.28125q0 -0.15625 0 -0.203125q0 -0.484375 -0.21875 -0.671875q-0.3125 -0.28125 -0.90625 -0.28125q-0.5625 0 -0.828125 0.203125q-0.265625 0.1875 -0.390625 0.6875l-0.765625 -0.09375q0.09375 -0.5 0.328125 -0.796875q0.25 -0.3125 0.703125 -0.46875q0.46875 -0.171875 1.0625 -0.171875q0.609375 0 0.96875 0.140625q0.375 0.140625 0.546875 0.359375q0.1875 0.203125 0.25 0.53125q0.046875 0.203125 0.046875 0.71875l0 1.0625q0 1.09375 0.046875 1.390625q0.046875 0.296875 0.203125 0.5625l-0.828125 0q-0.125 -0.25 -0.15625 -0.578125zm-0.0625 -1.765625q-0.4375 0.171875 -1.296875 0.296875q-0.484375 0.078125 -0.6875 0.171875q-0.203125 0.078125 -0.3125 0.25q-0.109375 0.171875 -0.109375 0.375q0 0.3125 0.234375 0.53125q0.234375 0.203125 0.703125 0.203125q0.453125 0 0.8125 -0.203125q0.359375 -0.203125 0.53125 -0.546875q0.125 -0.265625 0.125 -0.78125l0 -0.296875zm1.8909912 0.953125l0.78125 -0.125q0.0625 0.46875 0.359375 0.71875q0.3125 0.25 0.84375 0.25q0.546875 0 0.8125 -0.21875q0.265625 -0.21875 0.265625 -0.515625q0 -0.28125 -0.234375 -0.421875q-0.171875 -0.109375 -0.8125 -0.28125q-0.875 -0.21875 -1.21875 -0.375q-0.328125 -0.15625 -0.5 -0.4375q-0.171875 -0.28125 -0.171875 -0.625q0 -0.3125 0.140625 -0.578125q0.140625 -0.265625 0.390625 -0.453125q0.1875 -0.125 0.5 -0.21875q0.328125 -0.09375 0.6875 -0.09375q0.546875 0 0.953125 0.15625q0.421875 0.15625 0.625 0.421875q0.203125 0.265625 0.28125 0.71875l-0.78125 0.109375q-0.046875 -0.359375 -0.3125 -0.5625q-0.25 -0.203125 -0.703125 -0.203125q-0.546875 0 -0.78125 0.1875q-0.234375 0.171875 -0.234375 0.421875q0 0.15625 0.09375 0.265625q0.09375 0.140625 0.3125 0.21875q0.109375 0.046875 0.6875 0.203125q0.84375 0.21875 1.171875 0.359375q0.34375 0.140625 0.53125 0.421875q0.1875 0.265625 0.1875 0.671875q0 0.40625 -0.234375 0.75q-0.234375 0.34375 -0.671875 0.546875q-0.421875 0.1875 -0.984375 0.1875q-0.90625 0 -1.390625 -0.375q-0.46875 -0.390625 -0.59375 -1.125z" fill-rule="nonzero"></path><path fill="#cfe2f3" d="m146.18636 51.812054l0 0c0 -10.908951 19.59195 -19.752407 43.759842 -19.752407c24.167892 0 43.759842 8.843456 43.759842 19.752407l0 79.00963c0 10.908951 -19.59195 19.752396 -43.759842 19.752396c-24.167892 0 -43.759842 -8.843445 -43.759842 -19.752396z" fill-rule="nonzero"></path><path fill="#000000" fill-opacity="0.0" d="m233.70604 51.812054l0 0c0 10.908955 -19.59195 19.752407 -43.759842 19.752407c-24.167892 0 -43.759842 -8.843452 -43.759842 -19.752407" fill-rule="nonzero"></path><path fill="#000000" fill-opacity="0.0" d="m146.18636 51.812054l0 0c0 -10.908951 19.59195 -19.752407 43.759842 -19.752407c24.167892 0 43.759842 8.843456 43.759842 19.752407l0 79.00963c0 10.908951 -19.59195 19.752396 -43.759842 19.752396c-24.167892 0 -43.759842 -8.843445 -43.759842 -19.752396z" fill-rule="nonzero"></path><path stroke="#000000" stroke-width="1.0" stroke-linejoin="round" stroke-linecap="butt" d="m233.70604 51.812054l0 0c0 10.908955 -19.59195 19.752407 -43.759842 19.752407c-24.167892 0 -43.759842 -8.843452 -43.759842 -19.752407" fill-rule="nonzero"></path><path stroke="#000000" stroke-width="1.0" stroke-linejoin="round" stroke-linecap="butt" d="m146.18636 51.812054l0 0c0 -10.908951 19.59195 -19.752407 43.759842 -19.752407c24.167892 0 43.759842 8.843456 43.759842 19.752407l0 79.00963c0 10.908951 -19.59195 19.752396 -43.759842 19.752396c-24.167892 0 -43.759842 -8.843445 -43.759842 -19.752396z" fill-rule="nonzero"></path><path fill="#000000" d="m174.4625 97.05932l1.265625 -0.125q0.109375 0.640625 0.453125 0.9375q0.359375 0.296875 0.953125 0.296875q0.625 0 0.9375 -0.265625q0.328125 -0.265625 0.328125 -0.625q0 -0.21875 -0.140625 -0.375q-0.125 -0.171875 -0.46875 -0.296875q-0.21875 -0.078125 -1.03125 -0.28125q-1.046875 -0.25 -1.46875 -0.625q-0.59375 -0.53125 -0.59375 -1.296875q0 -0.5 0.265625 -0.921875q0.28125 -0.4375 0.8125 -0.65625q0.53125 -0.21875 1.265625 -0.21875q1.21875 0 1.828125 0.53125q0.609375 0.53125 0.640625 1.421875l-1.296875 0.046875q-0.078125 -0.5 -0.359375 -0.703125q-0.265625 -0.21875 -0.828125 -0.21875q-0.5625 0 -0.875 0.21875q-0.21875 0.15625 -0.21875 0.40625q0 0.234375 0.203125 0.390625q0.234375 0.203125 1.1875 0.4375q0.953125 0.21875 1.40625 0.46875q0.453125 0.234375 0.703125 0.65625q0.265625 0.40625 0.265625 1.015625q0 0.546875 -0.3125 1.03125q-0.296875 0.484375 -0.859375 0.71875q-0.5625 0.234375 -1.40625 0.234375q-1.21875 0 -1.875 -0.5625q-0.65625 -0.5625 -0.78125 -1.640625zm8.6749115 -2.578125l0 0.984375l-0.84375 0l0 1.890625q0 0.5625 0.015625 0.65625q0.03125 0.09375 0.109375 0.15625q0.09375 0.0625 0.21875 0.0625q0.171875 0 0.5 -0.109375l0.109375 0.953125q-0.4375 0.1875 -0.984375 0.1875q-0.328125 0 -0.59375 -0.109375q-0.265625 -0.125 -0.390625 -0.296875q-0.125 -0.171875 -0.171875 -0.484375q-0.046875 -0.21875 -0.046875 -0.859375l0 -2.046875l-0.5625 0l0 -0.984375l0.5625 0l0 -0.921875l1.234375 -0.71875l0 1.640625l0.84375 0zm0.6844635 2.265625q0 -0.609375 0.296875 -1.1875q0.3125 -0.578125 0.859375 -0.875q0.5625 -0.296875 1.25 -0.296875q1.0625 0 1.734375 0.6875q0.671875 0.6875 0.671875 1.734375q0 1.0625 -0.6875 1.765625q-0.671875 0.6875 -1.71875 0.6875q-0.640625 0 -1.21875 -0.28125q-0.578125 -0.296875 -0.890625 -0.859375q-0.296875 -0.5625 -0.296875 -1.375zm1.265625 0.078125q0 0.6875 0.328125 1.0625q0.328125 0.359375 0.8125 0.359375q0.484375 0 0.8125 -0.359375q0.328125 -0.375 0.328125 -1.078125q0 -0.6875 -0.328125 -1.046875q-0.328125 -0.375 -0.8125 -0.375q-0.484375 0 -0.8125 0.375q-0.328125 0.359375 -0.328125 1.0625zm5.901123 2.328125l-1.234375 0l0 -4.671875l1.140625 0l0 0.671875q0.296875 -0.46875 0.53125 -0.609375q0.234375 -0.15625 0.53125 -0.15625q0.421875 0 0.8125 0.21875l-0.375 1.078125q-0.3125 -0.203125 -0.578125 -0.203125q-0.265625 0 -0.453125 0.15625q-0.171875 0.140625 -0.28125 0.515625q-0.09375 0.375 -0.09375 1.5625l0 1.4375zm5.145767 -1.484375l1.234375 0.203125q-0.234375 0.671875 -0.75 1.03125q-0.515625 0.359375 -1.28125 0.359375q-1.21875 0 -1.796875 -0.796875q-0.46875 -0.640625 -0.46875 -1.609375q0 -1.15625 0.609375 -1.8125q0.609375 -0.65625 1.53125 -0.65625q1.046875 0 1.640625 0.6875q0.609375 0.6875 0.578125 2.09375l-3.09375 0q0.015625 0.5625 0.296875 0.875q0.296875 0.296875 0.71875 0.296875q0.296875 0 0.484375 -0.15625q0.203125 -0.171875 0.296875 -0.515625zm0.078125 -1.25q-0.015625 -0.53125 -0.28125 -0.8125q-0.265625 -0.28125 -0.640625 -0.28125q-0.40625 0 -0.671875 0.296875q-0.265625 0.296875 -0.25 0.796875l1.84375 0zm8.904526 1.59375l0 1.140625l-4.328125 0q0.078125 -0.65625 0.421875 -1.234375q0.359375 -0.578125 1.390625 -1.546875q0.84375 -0.78125 1.03125 -1.046875q0.25 -0.390625 0.25 -0.765625q0 -0.40625 -0.21875 -0.625q-0.21875 -0.21875 -0.609375 -0.21875q-0.390625 0 -0.625 0.234375q-0.21875 0.21875 -0.265625 0.765625l-1.21875 -0.125q0.109375 -1.015625 0.6875 -1.453125q0.578125 -0.453125 1.453125 -0.453125q0.953125 0 1.484375 0.515625q0.546875 0.515625 0.546875 1.28125q0 0.4375 -0.15625 0.828125q-0.15625 0.390625 -0.484375 0.8125q-0.234375 0.296875 -0.8125 0.828125q-0.578125 0.53125 -0.734375 0.71875q-0.15625 0.171875 -0.265625 0.34375l2.453125 0z" fill-rule="nonzero"></path><path fill="#000000" d="m168.1565 110.15307l-0.796875 0l0 -5.046875q-0.28125 0.28125 -0.75 0.5625q-0.46875 0.265625 -0.828125 0.390625l0 -0.765625q0.65625 -0.296875 1.15625 -0.734375q0.5 -0.453125 0.703125 -0.875l0.515625 0l0 6.46875zm2.2034912 -3.171875q0 -1.140625 0.234375 -1.84375q0.234375 -0.703125 0.6875 -1.078125q0.46875 -0.375 1.171875 -0.375q0.53125 0 0.921875 0.21875q0.390625 0.203125 0.640625 0.59375q0.25 0.390625 0.390625 0.953125q0.15625 0.5625 0.15625 1.53125q0 1.125 -0.234375 1.828125q-0.234375 0.6875 -0.703125 1.078125q-0.453125 0.375 -1.171875 0.375q-0.921875 0 -1.453125 -0.671875q-0.640625 -0.796875 -0.640625 -2.609375zm0.8125 0q0 1.578125 0.359375 2.109375q0.375 0.515625 0.921875 0.515625q0.546875 0 0.921875 -0.515625q0.375 -0.53125 0.375 -2.109375q0 -1.59375 -0.375 -2.109375q-0.375 -0.53125 -0.921875 -0.53125q-0.546875 0 -0.875 0.453125q-0.40625 0.59375 -0.40625 2.1875zm4.375366 0q0 -1.140625 0.234375 -1.84375q0.234375 -0.703125 0.6875 -1.078125q0.46875 -0.375 1.171875 -0.375q0.53125 0 0.921875 0.21875q0.390625 0.203125 0.640625 0.59375q0.25 0.390625 0.390625 0.953125q0.15625 0.5625 0.15625 1.53125q0 1.125 -0.234375 1.828125q-0.234375 0.6875 -0.703125 1.078125q-0.453125 0.375 -1.171875 0.375q-0.921875 0 -1.453125 -0.671875q-0.640625 -0.796875 -0.640625 -2.609375zm0.8125 0q0 1.578125 0.359375 2.109375q0.375 0.515625 0.921875 0.515625q0.546875 0 0.921875 -0.515625q0.375 -0.53125 0.375 -2.109375q0 -1.59375 -0.375 -2.109375q-0.375 -0.53125 -0.921875 -0.53125q-0.546875 0 -0.875 0.453125q-0.40625 0.59375 -0.40625 2.1875zm7.1701508 3.171875l0 -4.671875l0.71875 0l0 0.71875q0.265625 -0.5 0.5 -0.65625q0.234375 -0.15625 0.515625 -0.15625q0.390625 0 0.8125 0.25l-0.28125 0.734375q-0.28125 -0.171875 -0.578125 -0.171875q-0.25 0 -0.46875 0.15625q-0.203125 0.15625 -0.296875 0.4375q-0.125 0.421875 -0.125 0.921875l0 2.4375l-0.796875 0zm6.3094635 -1.5l0.828125 0.09375q-0.203125 0.71875 -0.734375 1.125q-0.515625 0.390625 -1.328125 0.390625q-1.015625 0 -1.625 -0.625q-0.59375 -0.640625 -0.59375 -1.78125q0 -1.171875 0.609375 -1.8125q0.609375 -0.65625 1.578125 -0.65625q0.9375 0 1.515625 0.640625q0.59375 0.625 0.59375 1.78125q0 0.078125 0 0.21875l-3.484375 0q0.046875 0.765625 0.4375 1.171875q0.390625 0.40625 0.984375 0.40625q0.4375 0 0.734375 -0.21875q0.3125 -0.234375 0.484375 -0.734375zm-2.59375 -1.28125l2.609375 0q-0.046875 -0.59375 -0.296875 -0.890625q-0.375 -0.453125 -0.984375 -0.453125q-0.546875 0 -0.921875 0.375q-0.359375 0.359375 -0.40625 0.96875zm4.594116 4.5625l0 -6.453125l0.71875 0l0 0.609375q0.25 -0.359375 0.5625 -0.53125q0.328125 -0.171875 0.796875 -0.171875q0.59375 0 1.046875 0.3125q0.453125 0.296875 0.6875 0.859375q0.234375 0.5625 0.234375 1.21875q0 0.71875 -0.265625 1.296875q-0.25 0.578125 -0.734375 0.890625q-0.484375 0.296875 -1.03125 0.296875q-0.390625 0 -0.703125 -0.171875q-0.3125 -0.171875 -0.515625 -0.421875l0 2.265625l-0.796875 0zm0.71875 -4.09375q0 0.90625 0.359375 1.34375q0.375 0.421875 0.890625 0.421875q0.515625 0 0.890625 -0.4375q0.390625 -0.453125 0.390625 -1.390625q0 -0.890625 -0.375 -1.328125q-0.359375 -0.453125 -0.875 -0.453125q-0.5 0 -0.890625 0.484375q-0.390625 0.46875 -0.390625 1.359375zm4.453491 2.3125l0 -6.4375l0.78125 0l0 6.4375l-0.78125 0zm2.0880432 -5.53125l0 -0.90625l0.796875 0l0 0.90625l-0.796875 0zm0 5.53125l0 -4.671875l0.796875 0l0 4.671875l-0.796875 0zm5.119293 -1.703125l0.78125 0.09375q-0.125 0.8125 -0.65625 1.265625q-0.53125 0.453125 -1.296875 0.453125q-0.953125 0 -1.53125 -0.625q-0.578125 -0.625 -0.578125 -1.796875q0 -0.765625 0.25 -1.328125q0.25 -0.5625 0.75 -0.84375q0.515625 -0.28125 1.125 -0.28125q0.75 0 1.234375 0.390625q0.484375 0.375 0.625 1.078125l-0.765625 0.125q-0.109375 -0.46875 -0.390625 -0.703125q-0.28125 -0.25 -0.671875 -0.25q-0.609375 0 -0.984375 0.4375q-0.359375 0.421875 -0.359375 1.34375q0 0.953125 0.359375 1.375q0.359375 0.421875 0.9375 0.421875q0.46875 0 0.78125 -0.28125q0.3125 -0.28125 0.390625 -0.875zm4.6640625 1.125q-0.4375 0.375 -0.84375 0.53125q-0.40625 0.15625 -0.875 0.15625q-0.765625 0 -1.1875 -0.375q-0.40625 -0.375 -0.40625 -0.96875q0 -0.34375 0.15625 -0.625q0.15625 -0.28125 0.40625 -0.453125q0.25 -0.171875 0.5625 -0.265625q0.234375 -0.046875 0.703125 -0.109375q0.96875 -0.109375 1.421875 -0.28125q0 -0.15625 0 -0.203125q0 -0.484375 -0.21875 -0.671875q-0.3125 -0.28125 -0.90625 -0.28125q-0.5625 0 -0.828125 0.203125q-0.265625 0.1875 -0.390625 0.6875l-0.765625 -0.09375q0.09375 -0.5 0.328125 -0.796875q0.25 -0.3125 0.703125 -0.46875q0.46875 -0.171875 1.0625 -0.171875q0.609375 0 0.96875 0.140625q0.375 0.140625 0.546875 0.359375q0.1875 0.203125 0.25 0.53125q0.046875 0.203125 0.046875 0.71875l0 1.0625q0 1.09375 0.046875 1.390625q0.046875 0.296875 0.203125 0.5625l-0.828125 0q-0.125 -0.25 -0.15625 -0.578125zm-0.0625 -1.765625q-0.4375 0.171875 -1.296875 0.296875q-0.484375 0.078125 -0.6875 0.171875q-0.203125 0.078125 -0.3125 0.25q-0.109375 0.171875 -0.109375 0.375q0 0.3125 0.234375 0.53125q0.234375 0.203125 0.703125 0.203125q0.453125 0 0.8125 -0.203125q0.359375 -0.203125 0.53125 -0.546875q0.125 -0.265625 0.125 -0.78125l0 -0.296875zm1.8909912 0.953125l0.78125 -0.125q0.0625 0.46875 0.359375 0.71875q0.3125 0.25 0.84375 0.25q0.546875 0 0.8125 -0.21875q0.265625 -0.21875 0.265625 -0.515625q0 -0.28125 -0.234375 -0.421875q-0.171875 -0.109375 -0.8125 -0.28125q-0.875 -0.21875 -1.21875 -0.375q-0.328125 -0.15625 -0.5 -0.4375q-0.171875 -0.28125 -0.171875 -0.625q0 -0.3125 0.140625 -0.578125q0.140625 -0.265625 0.390625 -0.453125q0.1875 -0.125 0.5 -0.21875q0.328125 -0.09375 0.6875 -0.09375q0.546875 0 0.953125 0.15625q0.421875 0.15625 0.625 0.421875q0.203125 0.265625 0.28125 0.71875l-0.78125 0.109375q-0.046875 -0.359375 -0.3125 -0.5625q-0.25 -0.203125 -0.703125 -0.203125q-0.546875 0 -0.78125 0.1875q-0.234375 0.171875 -0.234375 0.421875q0 0.15625 0.09375 0.265625q0.09375 0.140625 0.3125 0.21875q0.109375 0.046875 0.6875 0.203125q0.84375 0.21875 1.171875 0.359375q0.34375 0.140625 0.53125 0.421875q0.1875 0.265625 0.1875 0.671875q0 0.40625 -0.234375 0.75q-0.234375 0.34375 -0.671875 0.546875q-0.421875 0.1875 -0.984375 0.1875q-0.90625 0 -1.390625 -0.375q-0.46875 -0.390625 -0.59375 -1.125z" fill-rule="nonzero"></path><path fill="#cfe2f3" d="m262.89502 52.643135l0 0c0 -10.908955 19.59195 -19.752407 43.759827 -19.752407c24.167908 0 43.759857 8.843452 43.759857 19.752407l0 79.00962c0 10.908951 -19.59195 19.75241 -43.759857 19.75241c-24.167877 0 -43.759827 -8.84346 -43.759827 -19.75241z" fill-rule="nonzero"></path><path fill="#000000" fill-opacity="0.0" d="m350.4147 52.643135l0 0c0 10.908951 -19.59195 19.752403 -43.759857 19.752403c-24.167877 0 -43.759827 -8.843452 -43.759827 -19.752403" fill-rule="nonzero"></path><path fill="#000000" fill-opacity="0.0" d="m262.89502 52.643135l0 0c0 -10.908955 19.59195 -19.752407 43.759827 -19.752407c24.167908 0 43.759857 8.843452 43.759857 19.752407l0 79.00962c0 10.908951 -19.59195 19.75241 -43.759857 19.75241c-24.167877 0 -43.759827 -8.84346 -43.759827 -19.75241z" fill-rule="nonzero"></path><path stroke="#000000" stroke-width="1.0" stroke-linejoin="round" stroke-linecap="butt" d="m350.4147 52.643135l0 0c0 10.908951 -19.59195 19.752403 -43.759857 19.752403c-24.167877 0 -43.759827 -8.843452 -43.759827 -19.752403" fill-rule="nonzero"></path><path stroke="#000000" stroke-width="1.0" stroke-linejoin="round" stroke-linecap="butt" d="m262.89502 52.643135l0 0c0 -10.908955 19.59195 -19.752407 43.759827 -19.752407c24.167908 0 43.759857 8.843452 43.759857 19.752407l0 79.00962c0 10.908951 -19.59195 19.75241 -43.759857 19.75241c-24.167877 0 -43.759827 -8.84346 -43.759827 -19.75241z" fill-rule="nonzero"></path><path fill="#000000" d="m291.17114 97.890396l1.265625 -0.125q0.109375 0.640625 0.453125 0.9375q0.359375 0.296875 0.953125 0.296875q0.625 0 0.9375 -0.265625q0.328125 -0.265625 0.328125 -0.625q0 -0.21875 -0.140625 -0.375q-0.125 -0.171875 -0.46875 -0.296875q-0.21875 -0.078125 -1.03125 -0.28125q-1.046875 -0.25 -1.46875 -0.625q-0.59375 -0.53125 -0.59375 -1.296875q0 -0.5 0.265625 -0.921875q0.28125 -0.4375 0.8125 -0.65625q0.53125 -0.21875 1.265625 -0.21875q1.21875 0 1.828125 0.53125q0.609375 0.53125 0.640625 1.421875l-1.296875 0.046875q-0.078125 -0.5 -0.359375 -0.703125q-0.265625 -0.21875 -0.828125 -0.21875q-0.5625 0 -0.875 0.21875q-0.21875 0.15625 -0.21875 0.40625q0 0.234375 0.203125 0.390625q0.234375 0.203125 1.1875 0.4375q0.953125 0.21875 1.40625 0.46875q0.453125 0.234375 0.703125 0.65625q0.265625 0.40625 0.265625 1.015625q0 0.546875 -0.3125 1.03125q-0.296875 0.484375 -0.859375 0.71875q-0.5625 0.234375 -1.40625 0.234375q-1.21875 0 -1.875 -0.5625q-0.65625 -0.5625 -0.78125 -1.640625zm8.674927 -2.578125l0 0.984375l-0.84375 0l0 1.890625q0 0.5625 0.015625 0.65625q0.03125 0.09375 0.109375 0.15625q0.09375 0.0625 0.21875 0.0625q0.171875 0 0.5 -0.109375l0.109375 0.953125q-0.4375 0.1875 -0.984375 0.1875q-0.328125 0 -0.59375 -0.109375q-0.265625 -0.125 -0.390625 -0.296875q-0.125 -0.171875 -0.171875 -0.484375q-0.046875 -0.21875 -0.046875 -0.859375l0 -2.046875l-0.5625 0l0 -0.984375l0.5625 0l0 -0.921875l1.234375 -0.71875l0 1.640625l0.84375 0zm0.68444824 2.265625q0 -0.609375 0.296875 -1.1875q0.3125 -0.578125 0.859375 -0.875q0.5625 -0.296875 1.25 -0.296875q1.0625 0 1.734375 0.6875q0.671875 0.6875 0.671875 1.734375q0 1.0625 -0.6875 1.765625q-0.671875 0.6875 -1.71875 0.6875q-0.640625 0 -1.21875 -0.28125q-0.578125 -0.296875 -0.890625 -0.859375q-0.296875 -0.5625 -0.296875 -1.375zm1.265625 0.078125q0 0.6875 0.328125 1.0625q0.328125 0.359375 0.8125 0.359375q0.484375 0 0.8125 -0.359375q0.328125 -0.375 0.328125 -1.078125q0 -0.6875 -0.328125 -1.046875q-0.328125 -0.375 -0.8125 -0.375q-0.484375 0 -0.8125 0.375q-0.328125 0.359375 -0.328125 1.0625zm5.901123 2.328125l-1.234375 0l0 -4.671875l1.140625 0l0 0.671875q0.296875 -0.46875 0.53125 -0.609375q0.234375 -0.15625 0.53125 -0.15625q0.421875 0 0.8125 0.21875l-0.375 1.078125q-0.3125 -0.203125 -0.578125 -0.203125q-0.265625 0 -0.453125 0.15625q-0.171875 0.140625 -0.28125 0.515625q-0.09375 0.375 -0.09375 1.5625l0 1.4375zm5.1457825 -1.484375l1.234375 0.203125q-0.234375 0.671875 -0.75 1.03125q-0.515625 0.359375 -1.28125 0.359375q-1.21875 0 -1.796875 -0.796875q-0.46875 -0.640625 -0.46875 -1.609375q0 -1.15625 0.609375 -1.8125q0.609375 -0.65625 1.53125 -0.65625q1.046875 0 1.640625 0.6875q0.609375 0.6875 0.578125 2.09375l-3.09375 0q0.015625 0.5625 0.296875 0.875q0.296875 0.296875 0.71875 0.296875q0.296875 0 0.484375 -0.15625q0.203125 -0.171875 0.296875 -0.515625zm0.078125 -1.25q-0.015625 -0.53125 -0.28125 -0.8125q-0.265625 -0.28125 -0.640625 -0.28125q-0.40625 0 -0.671875 0.296875q-0.265625 0.296875 -0.25 0.796875l1.84375 0zm4.7013855 1.03125l1.1875 -0.15625q0.0625 0.46875 0.3125 0.703125q0.25 0.234375 0.609375 0.234375q0.375 0 0.640625 -0.28125q0.265625 -0.296875 0.265625 -0.78125q0 -0.46875 -0.25 -0.734375q-0.25 -0.28125 -0.625 -0.28125q-0.234375 0 -0.5625 0.09375l0.140625 -1.0q0.5 0.015625 0.765625 -0.21875q0.265625 -0.234375 0.265625 -0.609375q0 -0.328125 -0.203125 -0.515625q-0.1875 -0.203125 -0.515625 -0.203125q-0.3125 0 -0.53125 0.21875q-0.21875 0.21875 -0.28125 0.640625l-1.125 -0.1875q0.109375 -0.59375 0.34375 -0.9375q0.25 -0.34375 0.671875 -0.546875q0.4375 -0.203125 0.96875 -0.203125q0.90625 0 1.453125 0.578125q0.453125 0.46875 0.453125 1.078125q0 0.84375 -0.921875 1.34375q0.546875 0.125 0.875 0.546875q0.34375 0.40625 0.34375 0.984375q0 0.859375 -0.625 1.453125q-0.625 0.59375 -1.546875 0.59375q-0.875 0 -1.453125 -0.5q-0.5625 -0.5 -0.65625 -1.3125z" fill-rule="nonzero"></path><path fill="#000000" d="m284.86514 110.984146l-0.796875 0l0 -5.046875q-0.28125 0.28125 -0.75 0.5625q-0.46875 0.265625 -0.828125 0.390625l0 -0.765625q0.65625 -0.296875 1.15625 -0.734375q0.5 -0.453125 0.703125 -0.875l0.515625 0l0 6.46875zm2.2034912 -3.171875q0 -1.140625 0.234375 -1.84375q0.234375 -0.703125 0.6875 -1.078125q0.46875 -0.375 1.171875 -0.375q0.53125 0 0.921875 0.21875q0.390625 0.203125 0.640625 0.59375q0.25 0.390625 0.390625 0.953125q0.15625 0.5625 0.15625 1.53125q0 1.125 -0.234375 1.828125q-0.234375 0.6875 -0.703125 1.078125q-0.453125 0.375 -1.171875 0.375q-0.921875 0 -1.453125 -0.671875q-0.640625 -0.796875 -0.640625 -2.609375zm0.8125 0q0 1.578125 0.359375 2.109375q0.375 0.515625 0.921875 0.515625q0.546875 0 0.921875 -0.515625q0.375 -0.53125 0.375 -2.109375q0 -1.59375 -0.375 -2.109375q-0.375 -0.53125 -0.921875 -0.53125q-0.546875 0 -0.875 0.453125q-0.40625 0.59375 -0.40625 2.1875zm4.375366 0q0 -1.140625 0.234375 -1.84375q0.234375 -0.703125 0.6875 -1.078125q0.46875 -0.375 1.171875 -0.375q0.53125 0 0.921875 0.21875q0.390625 0.203125 0.640625 0.59375q0.25 0.390625 0.390625 0.953125q0.15625 0.5625 0.15625 1.53125q0 1.125 -0.234375 1.828125q-0.234375 0.6875 -0.703125 1.078125q-0.453125 0.375 -1.171875 0.375q-0.921875 0 -1.453125 -0.671875q-0.640625 -0.796875 -0.640625 -2.609375zm0.8125 0q0 1.578125 0.359375 2.109375q0.375 0.515625 0.921875 0.515625q0.546875 0 0.921875 -0.515625q0.375 -0.53125 0.375 -2.109375q0 -1.59375 -0.375 -2.109375q-0.375 -0.53125 -0.921875 -0.53125q-0.546875 0 -0.875 0.453125q-0.40625 0.59375 -0.40625 2.1875zm7.170166 3.171875l0 -4.671875l0.71875 0l0 0.71875q0.265625 -0.5 0.5 -0.65625q0.234375 -0.15625 0.515625 -0.15625q0.390625 0 0.8125 0.25l-0.28125 0.734375q-0.28125 -0.171875 -0.578125 -0.171875q-0.25 0 -0.46875 0.15625q-0.203125 0.15625 -0.296875 0.4375q-0.125 0.421875 -0.125 0.921875l0 2.4375l-0.796875 0zm6.3094482 -1.5l0.828125 0.09375q-0.203125 0.71875 -0.734375 1.125q-0.515625 0.390625 -1.328125 0.390625q-1.015625 0 -1.625 -0.625q-0.59375 -0.640625 -0.59375 -1.78125q0 -1.171875 0.609375 -1.8125q0.609375 -0.65625 1.578125 -0.65625q0.9375 0 1.515625 0.640625q0.59375 0.625 0.59375 1.78125q0 0.078125 0 0.21875l-3.484375 0q0.046875 0.765625 0.4375 1.171875q0.390625 0.40625 0.984375 0.40625q0.4375 0 0.734375 -0.21875q0.3125 -0.234375 0.484375 -0.734375zm-2.59375 -1.28125l2.609375 0q-0.046875 -0.59375 -0.296875 -0.890625q-0.375 -0.453125 -0.984375 -0.453125q-0.546875 0 -0.921875 0.375q-0.359375 0.359375 -0.40625 0.96875zm4.594116 4.5625l0 -6.453125l0.71875 0l0 0.609375q0.25 -0.359375 0.5625 -0.53125q0.328125 -0.171875 0.796875 -0.171875q0.59375 0 1.046875 0.3125q0.453125 0.296875 0.6875 0.859375q0.234375 0.5625 0.234375 1.21875q0 0.71875 -0.265625 1.296875q-0.25 0.578125 -0.734375 0.890625q-0.484375 0.296875 -1.03125 0.296875q-0.390625 0 -0.703125 -0.171875q-0.3125 -0.171875 -0.515625 -0.421875l0 2.265625l-0.796875 0zm0.71875 -4.09375q0 0.90625 0.359375 1.34375q0.375 0.421875 0.890625 0.421875q0.515625 0 0.890625 -0.4375q0.390625 -0.453125 0.390625 -1.390625q0 -0.890625 -0.375 -1.328125q-0.359375 -0.453125 -0.875 -0.453125q-0.5 0 -0.890625 0.484375q-0.390625 0.46875 -0.390625 1.359375zm4.453491 2.3125l0 -6.4375l0.78125 0l0 6.4375l-0.78125 0zm2.0880432 -5.53125l0 -0.90625l0.796875 0l0 0.90625l-0.796875 0zm0 5.53125l0 -4.671875l0.796875 0l0 4.671875l-0.796875 0zm5.119293 -1.703125l0.78125 0.09375q-0.125 0.8125 -0.65625 1.265625q-0.53125 0.453125 -1.296875 0.453125q-0.953125 0 -1.53125 -0.625q-0.578125 -0.625 -0.578125 -1.796875q0 -0.765625 0.25 -1.328125q0.25 -0.5625 0.75 -0.84375q0.515625 -0.28125 1.125 -0.28125q0.75 0 1.234375 0.390625q0.484375 0.375 0.625 1.078125l-0.765625 0.125q-0.109375 -0.46875 -0.390625 -0.703125q-0.28125 -0.25 -0.671875 -0.25q-0.609375 0 -0.984375 0.4375q-0.359375 0.421875 -0.359375 1.34375q0 0.953125 0.359375 1.375q0.359375 0.421875 0.9375 0.421875q0.46875 0 0.78125 -0.28125q0.3125 -0.28125 0.390625 -0.875zm4.6640625 1.125q-0.4375 0.375 -0.84375 0.53125q-0.40625 0.15625 -0.875 0.15625q-0.765625 0 -1.1875 -0.375q-0.40625 -0.375 -0.40625 -0.96875q0 -0.34375 0.15625 -0.625q0.15625 -0.28125 0.40625 -0.453125q0.25 -0.171875 0.5625 -0.265625q0.234375 -0.046875 0.703125 -0.109375q0.96875 -0.109375 1.421875 -0.28125q0 -0.15625 0 -0.203125q0 -0.484375 -0.21875 -0.671875q-0.3125 -0.28125 -0.90625 -0.28125q-0.5625 0 -0.828125 0.203125q-0.265625 0.1875 -0.390625 0.6875l-0.765625 -0.09375q0.09375 -0.5 0.328125 -0.796875q0.25 -0.3125 0.703125 -0.46875q0.46875 -0.171875 1.0625 -0.171875q0.609375 0 0.96875 0.140625q0.375 0.140625 0.546875 0.359375q0.1875 0.203125 0.25 0.53125q0.046875 0.203125 0.046875 0.71875l0 1.0625q0 1.09375 0.046875 1.390625q0.046875 0.296875 0.203125 0.5625l-0.828125 0q-0.125 -0.25 -0.15625 -0.578125zm-0.0625 -1.765625q-0.4375 0.171875 -1.296875 0.296875q-0.484375 0.078125 -0.6875 0.171875q-0.203125 0.078125 -0.3125 0.25q-0.109375 0.171875 -0.109375 0.375q0 0.3125 0.234375 0.53125q0.234375 0.203125 0.703125 0.203125q0.453125 0 0.8125 -0.203125q0.359375 -0.203125 0.53125 -0.546875q0.125 -0.265625 0.125 -0.78125l0 -0.296875zm1.8909912 0.953125l0.78125 -0.125q0.0625 0.46875 0.359375 0.71875q0.3125 0.25 0.84375 0.25q0.546875 0 0.8125 -0.21875q0.265625 -0.21875 0.265625 -0.515625q0 -0.28125 -0.234375 -0.421875q-0.171875 -0.109375 -0.8125 -0.28125q-0.875 -0.21875 -1.21875 -0.375q-0.328125 -0.15625 -0.5 -0.4375q-0.171875 -0.28125 -0.171875 -0.625q0 -0.3125 0.140625 -0.578125q0.140625 -0.265625 0.390625 -0.453125q0.1875 -0.125 0.5 -0.21875q0.328125 -0.09375 0.6875 -0.09375q0.546875 0 0.953125 0.15625q0.421875 0.15625 0.625 0.421875q0.203125 0.265625 0.28125 0.71875l-0.78125 0.109375q-0.046875 -0.359375 -0.3125 -0.5625q-0.25 -0.203125 -0.703125 -0.203125q-0.546875 0 -0.78125 0.1875q-0.234375 0.171875 -0.234375 0.421875q0 0.15625 0.09375 0.265625q0.09375 0.140625 0.3125 0.21875q0.109375 0.046875 0.6875 0.203125q0.84375 0.21875 1.171875 0.359375q0.34375 0.140625 0.53125 0.421875q0.1875 0.265625 0.1875 0.671875q0 0.40625 -0.234375 0.75q-0.234375 0.34375 -0.671875 0.546875q-0.421875 0.1875 -0.984375 0.1875q-0.90625 0 -1.390625 -0.375q-0.46875 -0.390625 -0.59375 -1.125z" fill-rule="nonzero"></path><path fill="#cfe2f3" d="m379.60367 52.643135l0 0c0 -10.908955 19.59195 -19.752407 43.759857 -19.752407c24.167877 0 43.759827 8.843452 43.759827 19.752407l0 79.00962c0 10.908951 -19.59195 19.75241 -43.759827 19.75241c-24.167908 0 -43.759857 -8.84346 -43.759857 -19.75241z" fill-rule="nonzero"></path><path fill="#000000" fill-opacity="0.0" d="m467.12335 52.643135l0 0c0 10.908951 -19.59195 19.752403 -43.759827 19.752403c-24.167908 0 -43.759857 -8.843452 -43.759857 -19.752403" fill-rule="nonzero"></path><path fill="#000000" fill-opacity="0.0" d="m379.60367 52.643135l0 0c0 -10.908955 19.59195 -19.752407 43.759857 -19.752407c24.167877 0 43.759827 8.843452 43.759827 19.752407l0 79.00962c0 10.908951 -19.59195 19.75241 -43.759827 19.75241c-24.167908 0 -43.759857 -8.84346 -43.759857 -19.75241z" fill-rule="nonzero"></path><path stroke="#000000" stroke-width="1.0" stroke-linejoin="round" stroke-linecap="butt" d="m467.12335 52.643135l0 0c0 10.908951 -19.59195 19.752403 -43.759827 19.752403c-24.167908 0 -43.759857 -8.843452 -43.759857 -19.752403" fill-rule="nonzero"></path><path stroke="#000000" stroke-width="1.0" stroke-linejoin="round" stroke-linecap="butt" d="m379.60367 52.643135l0 0c0 -10.908955 19.59195 -19.752407 43.759857 -19.752407c24.167877 0 43.759827 8.843452 43.759827 19.752407l0 79.00962c0 10.908951 -19.59195 19.75241 -43.759827 19.75241c-24.167908 0 -43.759857 -8.84346 -43.759857 -19.75241z" fill-rule="nonzero"></path><path fill="#000000" d="m407.87982 97.890396l1.265625 -0.125q0.109375 0.640625 0.453125 0.9375q0.359375 0.296875 0.953125 0.296875q0.625 0 0.9375 -0.265625q0.328125 -0.265625 0.328125 -0.625q0 -0.21875 -0.140625 -0.375q-0.125 -0.171875 -0.46875 -0.296875q-0.21875 -0.078125 -1.03125 -0.28125q-1.046875 -0.25 -1.46875 -0.625q-0.59375 -0.53125 -0.59375 -1.296875q0 -0.5 0.265625 -0.921875q0.28125 -0.4375 0.8125 -0.65625q0.53125 -0.21875 1.265625 -0.21875q1.21875 0 1.828125 0.53125q0.609375 0.53125 0.640625 1.421875l-1.296875 0.046875q-0.078125 -0.5 -0.359375 -0.703125q-0.265625 -0.21875 -0.828125 -0.21875q-0.5625 0 -0.875 0.21875q-0.21875 0.15625 -0.21875 0.40625q0 0.234375 0.203125 0.390625q0.234375 0.203125 1.1875 0.4375q0.953125 0.21875 1.40625 0.46875q0.453125 0.234375 0.703125 0.65625q0.265625 0.40625 0.265625 1.015625q0 0.546875 -0.3125 1.03125q-0.296875 0.484375 -0.859375 0.71875q-0.5625 0.234375 -1.40625 0.234375q-1.21875 0 -1.875 -0.5625q-0.65625 -0.5625 -0.78125 -1.640625zm8.674896 -2.578125l0 0.984375l-0.84375 0l0 1.890625q0 0.5625 0.015625 0.65625q0.03125 0.09375 0.109375 0.15625q0.09375 0.0625 0.21875 0.0625q0.171875 0 0.5 -0.109375l0.109375 0.953125q-0.4375 0.1875 -0.984375 0.1875q-0.328125 0 -0.59375 -0.109375q-0.265625 -0.125 -0.390625 -0.296875q-0.125 -0.171875 -0.171875 -0.484375q-0.046875 -0.21875 -0.046875 -0.859375l0 -2.046875l-0.5625 0l0 -0.984375l0.5625 0l0 -0.921875l1.234375 -0.71875l0 1.640625l0.84375 0zm0.68447876 2.265625q0 -0.609375 0.296875 -1.1875q0.3125 -0.578125 0.859375 -0.875q0.5625 -0.296875 1.25 -0.296875q1.0625 0 1.734375 0.6875q0.671875 0.6875 0.671875 1.734375q0 1.0625 -0.6875 1.765625q-0.671875 0.6875 -1.71875 0.6875q-0.640625 0 -1.21875 -0.28125q-0.578125 -0.296875 -0.890625 -0.859375q-0.296875 -0.5625 -0.296875 -1.375zm1.265625 0.078125q0 0.6875 0.328125 1.0625q0.328125 0.359375 0.8125 0.359375q0.484375 0 0.8125 -0.359375q0.328125 -0.375 0.328125 -1.078125q0 -0.6875 -0.328125 -1.046875q-0.328125 -0.375 -0.8125 -0.375q-0.484375 0 -0.8125 0.375q-0.328125 0.359375 -0.328125 1.0625zm5.901123 2.328125l-1.234375 0l0 -4.671875l1.140625 0l0 0.671875q0.296875 -0.46875 0.53125 -0.609375q0.234375 -0.15625 0.53125 -0.15625q0.421875 0 0.8125 0.21875l-0.375 1.078125q-0.3125 -0.203125 -0.578125 -0.203125q-0.265625 0 -0.453125 0.15625q-0.171875 0.140625 -0.28125 0.515625q-0.09375 0.375 -0.09375 1.5625l0 1.4375zm5.145752 -1.484375l1.234375 0.203125q-0.234375 0.671875 -0.75 1.03125q-0.515625 0.359375 -1.28125 0.359375q-1.21875 0 -1.796875 -0.796875q-0.46875 -0.640625 -0.46875 -1.609375q0 -1.15625 0.609375 -1.8125q0.609375 -0.65625 1.53125 -0.65625q1.046875 0 1.640625 0.6875q0.609375 0.6875 0.578125 2.09375l-3.09375 0q0.015625 0.5625 0.296875 0.875q0.296875 0.296875 0.71875 0.296875q0.296875 0 0.484375 -0.15625q0.203125 -0.171875 0.296875 -0.515625zm0.078125 -1.25q-0.015625 -0.53125 -0.28125 -0.8125q-0.265625 -0.28125 -0.640625 -0.28125q-0.40625 0 -0.671875 0.296875q-0.265625 0.296875 -0.25 0.796875l1.84375 0zm7.154541 2.734375l0 -1.296875l-2.625 0l0 -1.078125l2.796875 -4.09375l1.03125 0l0 4.09375l0.796875 0l0 1.078125l-0.796875 0l0 1.296875l-1.203125 0zm0 -2.375l0 -2.203125l-1.46875 2.203125l1.46875 0z" fill-rule="nonzero"></path><path fill="#000000" d="m401.40213 110.984146l0 -4.671875l0.71875 0l0 0.671875q0.5 -0.765625 1.484375 -0.765625q0.421875 0 0.765625 0.15625q0.359375 0.140625 0.53125 0.390625q0.171875 0.234375 0.25 0.578125q0.046875 0.21875 0.046875 0.765625l0 2.875l-0.796875 0l0 -2.84375q0 -0.484375 -0.09375 -0.71875q-0.09375 -0.234375 -0.328125 -0.375q-0.234375 -0.15625 -0.546875 -0.15625q-0.5 0 -0.875 0.328125q-0.359375 0.3125 -0.359375 1.21875l0 2.546875l-0.796875 0zm4.890991 -2.328125q0 -1.296875 0.71875 -1.921875q0.609375 -0.515625 1.46875 -0.515625q0.96875 0 1.578125 0.625q0.609375 0.625 0.609375 1.734375q0 0.90625 -0.28125 1.421875q-0.265625 0.515625 -0.78125 0.8125q-0.515625 0.28125 -1.125 0.28125q-0.984375 0 -1.59375 -0.625q-0.59375 -0.640625 -0.59375 -1.8125zm0.8125 0q0 0.890625 0.390625 1.34375q0.390625 0.4375 0.984375 0.4375q0.59375 0 0.984375 -0.4375q0.390625 -0.453125 0.390625 -1.375q0 -0.859375 -0.390625 -1.3125q-0.390625 -0.453125 -0.984375 -0.453125q-0.59375 0 -0.984375 0.453125q-0.390625 0.4375 -0.390625 1.34375zm7.2482605 2.328125l0 -4.671875l0.71875 0l0 0.71875q0.265625 -0.5 0.5 -0.65625q0.234375 -0.15625 0.515625 -0.15625q0.390625 0 0.8125 0.25l-0.28125 0.734375q-0.28125 -0.171875 -0.578125 -0.171875q-0.25 0 -0.46875 0.15625q-0.203125 0.15625 -0.296875 0.4375q-0.125 0.421875 -0.125 0.921875l0 2.4375l-0.796875 0zm6.3094788 -1.5l0.828125 0.09375q-0.203125 0.71875 -0.734375 1.125q-0.515625 0.390625 -1.328125 0.390625q-1.015625 0 -1.625 -0.625q-0.59375 -0.640625 -0.59375 -1.78125q0 -1.171875 0.609375 -1.8125q0.609375 -0.65625 1.578125 -0.65625q0.9375 0 1.515625 0.640625q0.59375 0.625 0.59375 1.78125q0 0.078125 0 0.21875l-3.484375 0q0.046875 0.765625 0.4375 1.171875q0.390625 0.40625 0.984375 0.40625q0.4375 0 0.734375 -0.21875q0.3125 -0.234375 0.484375 -0.734375zm-2.59375 -1.28125l2.609375 0q-0.046875 -0.59375 -0.296875 -0.890625q-0.375 -0.453125 -0.984375 -0.453125q-0.546875 0 -0.921875 0.375q-0.359375 0.359375 -0.40625 0.96875zm4.594116 4.5625l0 -6.453125l0.71875 0l0 0.609375q0.25 -0.359375 0.5625 -0.53125q0.328125 -0.171875 0.796875 -0.171875q0.59375 0 1.046875 0.3125q0.453125 0.296875 0.6875 0.859375q0.234375 0.5625 0.234375 1.21875q0 0.71875 -0.265625 1.296875q-0.25 0.578125 -0.734375 0.890625q-0.484375 0.296875 -1.03125 0.296875q-0.390625 0 -0.703125 -0.171875q-0.3125 -0.171875 -0.515625 -0.421875l0 2.265625l-0.796875 0zm0.71875 -4.09375q0 0.90625 0.359375 1.34375q0.375 0.421875 0.890625 0.421875q0.515625 0 0.890625 -0.4375q0.390625 -0.453125 0.390625 -1.390625q0 -0.890625 -0.375 -1.328125q-0.359375 -0.453125 -0.875 -0.453125q-0.5 0 -0.890625 0.484375q-0.390625 0.46875 -0.390625 1.359375zm4.453491 2.3125l0 -6.4375l0.78125 0l0 6.4375l-0.78125 0zm2.0880432 -5.53125l0 -0.90625l0.796875 0l0 0.90625l-0.796875 0zm0 5.53125l0 -4.671875l0.796875 0l0 4.671875l-0.796875 0zm5.119293 -1.703125l0.78125 0.09375q-0.125 0.8125 -0.65625 1.265625q-0.53125 0.453125 -1.296875 0.453125q-0.953125 0 -1.53125 -0.625q-0.578125 -0.625 -0.578125 -1.796875q0 -0.765625 0.25 -1.328125q0.25 -0.5625 0.75 -0.84375q0.515625 -0.28125 1.125 -0.28125q0.75 0 1.234375 0.390625q0.484375 0.375 0.625 1.078125l-0.765625 0.125q-0.109375 -0.46875 -0.390625 -0.703125q-0.28125 -0.25 -0.671875 -0.25q-0.609375 0 -0.984375 0.4375q-0.359375 0.421875 -0.359375 1.34375q0 0.953125 0.359375 1.375q0.359375 0.421875 0.9375 0.421875q0.46875 0 0.78125 -0.28125q0.3125 -0.28125 0.390625 -0.875zm4.6640625 1.125q-0.4375 0.375 -0.84375 0.53125q-0.40625 0.15625 -0.875 0.15625q-0.765625 0 -1.1875 -0.375q-0.40625 -0.375 -0.40625 -0.96875q0 -0.34375 0.15625 -0.625q0.15625 -0.28125 0.40625 -0.453125q0.25 -0.171875 0.5625 -0.265625q0.234375 -0.046875 0.703125 -0.109375q0.96875 -0.109375 1.421875 -0.28125q0 -0.15625 0 -0.203125q0 -0.484375 -0.21875 -0.671875q-0.3125 -0.28125 -0.90625 -0.28125q-0.5625 0 -0.828125 0.203125q-0.265625 0.1875 -0.390625 0.6875l-0.765625 -0.09375q0.09375 -0.5 0.328125 -0.796875q0.25 -0.3125 0.703125 -0.46875q0.46875 -0.171875 1.0625 -0.171875q0.609375 0 0.96875 0.140625q0.375 0.140625 0.546875 0.359375q0.1875 0.203125 0.25 0.53125q0.046875 0.203125 0.046875 0.71875l0 1.0625q0 1.09375 0.046875 1.390625q0.046875 0.296875 0.203125 0.5625l-0.828125 0q-0.125 -0.25 -0.15625 -0.578125zm-0.0625 -1.765625q-0.4375 0.171875 -1.296875 0.296875q-0.484375 0.078125 -0.6875 0.171875q-0.203125 0.078125 -0.3125 0.25q-0.109375 0.171875 -0.109375 0.375q0 0.3125 0.234375 0.53125q0.234375 0.203125 0.703125 0.203125q0.453125 0 0.8125 -0.203125q0.359375 -0.203125 0.53125 -0.546875q0.125 -0.265625 0.125 -0.78125l0 -0.296875zm1.8909912 0.953125l0.78125 -0.125q0.0625 0.46875 0.359375 0.71875q0.3125 0.25 0.84375 0.25q0.546875 0 0.8125 -0.21875q0.265625 -0.21875 0.265625 -0.515625q0 -0.28125 -0.234375 -0.421875q-0.171875 -0.109375 -0.8125 -0.28125q-0.875 -0.21875 -1.21875 -0.375q-0.328125 -0.15625 -0.5 -0.4375q-0.171875 -0.28125 -0.171875 -0.625q0 -0.3125 0.140625 -0.578125q0.140625 -0.265625 0.390625 -0.453125q0.1875 -0.125 0.5 -0.21875q0.328125 -0.09375 0.6875 -0.09375q0.546875 0 0.953125 0.15625q0.421875 0.15625 0.625 0.421875q0.203125 0.265625 0.28125 0.71875l-0.78125 0.109375q-0.046875 -0.359375 -0.3125 -0.5625q-0.25 -0.203125 -0.703125 -0.203125q-0.546875 0 -0.78125 0.1875q-0.234375 0.171875 -0.234375 0.421875q0 0.15625 0.09375 0.265625q0.09375 0.140625 0.3125 0.21875q0.109375 0.046875 0.6875 0.203125q0.84375 0.21875 1.171875 0.359375q0.34375 0.140625 0.53125 0.421875q0.1875 0.265625 0.1875 0.671875q0 0.40625 -0.234375 0.75q-0.234375 0.34375 -0.671875 0.546875q-0.421875 0.1875 -0.984375 0.1875q-0.90625 0 -1.390625 -0.375q-0.46875 -0.390625 -0.59375 -1.125z" fill-rule="nonzero"></path></g></svg>

